<?xml version="1.0" encoding="UTF-8" standalone="no"?>
<!-- Generator: Adobe Illustrator 15.1.0, SVG Export Plug-In . SVG Version: 6.00 Build 0)  -->

<svg
   xmlns:dc="http://purl.org/dc/elements/1.1/"
   xmlns:cc="http://creativecommons.org/ns#"
   xmlns:rdf="http://www.w3.org/1999/02/22-rdf-syntax-ns#"
   xmlns:svg="http://www.w3.org/2000/svg"
   xmlns="http://www.w3.org/2000/svg"
   xmlns:sodipodi="http://sodipodi.sourceforge.net/DTD/sodipodi-0.dtd"
   xmlns:inkscape="http://www.inkscape.org/namespaces/inkscape"
   version="1.1"
   id="Layer_1"
   x="0px"
   y="0px"
   width="351"
   height="365"
   viewBox="0 0 351 364.99998"
   enable-background="new 0 0 841.89 595.28"
   xml:space="preserve"
   inkscape:version="0.91 r13725"
   sodipodi:docname="grafana_icon.svg"><metadata
     id="metadata3522"><rdf:RDF><cc:Work
         rdf:about=""><dc:format>image/svg+xml</dc:format><dc:type
           rdf:resource="http://purl.org/dc/dcmitype/StillImage" /><dc:title></dc:title></cc:Work></rdf:RDF></metadata><defs
     id="defs3520"><linearGradient
       y2="301.53159"
       x2="381.1828"
       y1="202.687"
       x1="480.02731"
       gradientUnits="userSpaceOnUse"
       id="SVGID_3_"><stop
         id="stop3479"
         style="stop-color:#C6D200"
         offset="0" /><stop
         id="stop3481"
         style="stop-color:#7DAB2B"
         offset="1" /></linearGradient></defs><sodipodi:namedview
     pagecolor="#ffffff"
     bordercolor="#666666"
     borderopacity="1"
     objecttolerance="10"
     gridtolerance="10"
     guidetolerance="10"
     inkscape:pageopacity="0"
     inkscape:pageshadow="2"
     inkscape:window-width="1920"
     inkscape:window-height="1019"
     id="namedview3518"
     showgrid="false"
     inkscape:zoom="0.98235667"
     inkscape:cx="24.659493"
     inkscape:cy="117.45605"
     inkscape:window-x="1920"
     inkscape:window-y="1080"
     inkscape:window-maximized="1"
     inkscape:current-layer="Layer_1"
     units="px" /><g
     id="Layer_2"
     transform="matrix(2.1922747,0,0,2.0621207,-748.09551,-387.81652)"><linearGradient
       id="SVGID_4_"
       gradientUnits="userSpaceOnUse"
       x1="365.67719"
       y1="340.20609"
       x2="467.49829"
       y2="238.3851"><stop
         offset="0"
         style="stop-color:#69ABDE"
         id="stop3486" /><stop
         offset="1"
         style="stop-color:#2A5DAB"
         id="stop3488" /></linearGradient><g
       id="g3452"><path
         d="m 500.255,264.979 c 0,-36.363 -30.175,-69.886 -67.328,-71.688 -13.001,0 -26.647,1.458 -38.858,7.29 -11.859,5.662 -23.438,14.676 -31.19,30.349 -1.723,3.49 -3.041,6.7 -4.064,9.714 -2.771,8.137 -3.268,14.69 -3.268,20.817 0,15.098 9.112,31.863 21.175,38.669 8.838,4.97 20.275,7.457 34.316,7.471 l -4.929,16.324 c 0.037,0 0.072,0.008 0.106,0.008 1.787,0.09 3.357,0.133 4.758,0.133 12.098,0 19.744,-5.494 22.941,-16.498 2.696,-9.365 6.259,-21.588 9.048,-31.211 l -22.777,0 -5.707,19.399 c -8.705,0 -15.729,-2.256 -21.07,-6.805 -6.194,-5.215 -9.28,-12.896 -9.28,-23.003 0,-4.738 0.841,-10.122 2.789,-15.617 1.528,-4.261 3.717,-8.6 6.709,-12.741 6.288,-8.72 21.321,-16.562 37.981,-18.575 8.677,-1.107 18.827,-1.668 30.488,2.636 24.169,8.888 36.251,30.783 33.798,54.25"
         id="path3454"
         inkscape:connector-curvature="0"
         style="fill:#c1c0bd" /></g><path
       d="m 342.439,282.752 c -2.762,34.26 15.736,63.236 44.943,75.201 9.867,4.044 26.394,5.867 27.775,5.938 8.362,0.813 48.917,2.214 57.103,-22.03 0,0 0.728,-2.419 0.856,-6.266 0.096,-2.889 0.602,-5.487 -0.253,-9.327 -0.659,-2.877 -2.049,-6.857 -3.667,-9.751 l 0,0 c -1.995,-4.171 -5.081,-9.084 -7.071,-13.255 7.753,-4.583 10.87,-7.184 14.661,-10.976 6.332,-6.308 9.493,-13.099 9.493,-20.346 0,-8.728 -2.882,-14.964 -8.624,-18.722 -4.694,-3.042 -11.732,-4.583 -21.137,-4.583 l -48.027,0 -5.481,18.644 44.27,0 c 9.588,0 14.39,3.799 14.39,11.389 0,5.376 -1.957,10.114 -5.887,14.208 -2.314,2.467 -5.993,5.146 -11.012,8.068 -3.63,2.067 -5.859,4.183 -6.675,6.371 -0.082,0.286 -0.126,0.778 -0.126,1.472 0,1.38 0.819,3.587 2.452,6.617 1.628,3.033 2.448,5.635 2.448,7.809 0,6.804 -4.383,9.306 -11.853,11.598 -2.928,0.912 -7.086,1.744 -12.04,2.013 -6.022,0.336 -17.083,0.447 -24.743,-1.979 -20.914,-6.603 -44.702,-20.044 -45.418,-64.635"
       id="path3456"
       inkscape:connector-curvature="0"
       style="fill:#c1c0bd" /><g
       id="g3458"><g
         id="g3460"><linearGradient
           id="SVGID_1_"
           gradientUnits="userSpaceOnUse"
           x1="480.02731"
           y1="202.687"
           x2="381.1828"
           y2="301.53159"><stop
             offset="0"
             style="stop-color:#C6D200"
             id="stop3463" /><stop
             offset="1"
             style="stop-color:#7DAB2B"
             id="stop3465" /></linearGradient><path
           d="m 433.62,189.17 c -13.009,0 -26.654,1.458 -38.865,7.29 -11.858,5.664 -23.438,14.676 -31.189,30.349 -1.724,3.49 -3.042,6.7 -4.065,9.707 -2.762,8.138 -3.267,14.698 -3.267,20.81 0,15.112 9.11,31.878 21.174,38.676 8.839,4.978 20.278,7.465 34.309,7.473 l -4.919,16.332 c 0.027,0 0.069,0 0.096,0 1.796,0.097 3.364,0.138 4.767,0.138 12.099,0 19.742,-5.494 22.94,-16.497 2.698,-9.365 6.259,-21.588 9.05,-31.213 l -22.78,0 -5.714,19.402 c -8.697,0 -15.721,-2.265 -21.063,-6.807 -6.194,-5.215 -9.28,-12.897 -9.28,-23.003 0,-4.738 0.842,-10.12 2.791,-15.615 1.527,-4.269 3.715,-8.601 6.708,-12.743 6.287,-8.719 21.32,-16.563 37.979,-18.574 8.678,-1.108 18.828,-1.668 30.491,2.635 24.166,8.887 36.251,30.783 33.798,54.25 -0.499,4.893 -2.713,10.205 -6.877,18.519 0.806,-1.74 3.981,-5.496 6.147,-9.162 3.687,-6.273 5.088,-14.823 5.088,-20.277 0.002,-36.365 -30.169,-69.895 -67.319,-71.69 z"
           id="path3467"
           style="fill:url(#SVGID_1_)"
           inkscape:connector-curvature="0" /></g><linearGradient
         id="SVGID_2_"
         gradientUnits="userSpaceOnUse"
         x1="365.67719"
         y1="340.20609"
         x2="467.49829"
         y2="238.3851"><stop
           offset="0"
           style="stop-color:#69ABDE"
           id="stop3470" /><stop
           offset="1"
           style="stop-color:#2A5DAB"
           id="stop3472" /></linearGradient><path
         d="m 476.787,288.15 c 6.332,-6.3 9.493,-13.086 9.493,-20.339 0,-8.733 -2.882,-14.964 -8.624,-18.708 -4.694,-3.049 -11.732,-4.591 -21.137,-4.591 l -48.027,0 -5.481,18.638 44.27,0 c 9.588,0 14.39,3.806 14.39,11.39 0,5.383 -1.957,10.121 -5.887,14.207 -2.314,2.475 -5.993,5.151 -11.012,8.067 -3.63,2.074 -5.859,4.193 -6.675,6.365 -0.082,0.295 -0.126,0.792 -0.126,1.479 0,1.381 0.819,3.595 2.452,6.622 1.628,3.027 2.448,5.637 2.448,7.802 0,6.807 -4.383,9.315 -11.853,11.607 -2.928,0.911 -7.086,1.745 -12.04,2.013 -6.022,0.336 -17.083,0.44 -24.743,-1.979 -20.914,-6.602 -44.702,-20.054 -45.418,-64.637 -0.112,-6.574 0.813,-12.967 2.3,-19.058 -4.577,9.876 -7.745,20.166 -8.679,31.604 -2.762,34.26 15.736,63.235 44.943,75.198 9.867,4.037 26.394,5.866 27.775,5.938 8.362,0.813 48.917,2.214 57.103,-22.037 -0.041,0.155 4.611,-11.605 -3.063,-25.33 l 0,0 c -1.995,-4.19 -5.081,-9.097 -7.071,-13.261 7.754,-4.583 10.871,-7.183 14.662,-10.99 z"
         id="path3474"
         style="fill:url(#SVGID_2_)"
         inkscape:connector-curvature="0" /></g><path
       inkscape:connector-curvature="0"
       style="fill:url(#SVGID_3_)"
       id="path3483"
       d="m 433.62,189.17 c -13.009,0 -26.654,1.458 -38.865,7.29 -11.858,5.664 -23.438,14.676 -31.189,30.349 -1.724,3.49 -3.042,6.7 -4.065,9.707 -2.762,8.138 -3.267,14.698 -3.267,20.81 0,15.112 9.11,31.878 21.174,38.676 8.839,4.978 20.278,7.465 34.309,7.473 l -4.919,16.332 c 0.027,0 0.069,0 0.096,0 1.796,0.097 3.364,0.138 4.767,0.138 12.099,0 19.742,-5.494 22.94,-16.497 2.698,-9.365 6.259,-21.588 9.05,-31.213 l -22.78,0 -5.714,19.402 c -8.697,0 -15.721,-2.265 -21.063,-6.807 -6.194,-5.215 -9.28,-12.897 -9.28,-23.003 0,-4.738 0.842,-10.12 2.791,-15.615 1.527,-4.269 3.715,-8.601 6.708,-12.743 6.287,-8.719 21.32,-16.563 37.979,-18.574 8.678,-1.108 18.828,-1.668 30.491,2.635 24.166,8.887 36.251,30.783 33.798,54.25 -0.499,4.893 -2.713,10.205 -6.877,18.519 0.806,-1.74 3.981,-5.496 6.147,-9.162 3.687,-6.273 5.088,-14.823 5.088,-20.277 0.002,-36.365 -30.169,-69.895 -67.319,-71.69 z" /><path
       d="m 476.787,288.15 c 6.332,-6.3 9.493,-13.086 9.493,-20.339 0,-8.733 -2.882,-14.964 -8.624,-18.708 -4.694,-3.049 -11.732,-4.591 -21.137,-4.591 l -48.027,0 -5.481,18.638 44.27,0 c 9.588,0 14.39,3.806 14.39,11.39 0,5.383 -1.957,10.121 -5.887,14.207 -2.314,2.475 -5.993,5.151 -11.012,8.067 -3.63,2.074 -5.859,4.193 -6.675,6.365 -0.082,0.295 -0.126,0.792 -0.126,1.479 0,1.381 0.819,3.595 2.452,6.622 1.628,3.027 2.448,5.637 2.448,7.802 0,6.807 -4.383,9.315 -11.853,11.607 -2.928,0.911 -7.086,1.745 -12.04,2.013 -6.022,0.336 -17.083,0.44 -24.743,-1.979 -20.914,-6.602 -44.702,-20.054 -45.418,-64.637 -0.112,-6.574 0.813,-12.967 2.3,-19.058 -4.577,9.876 -7.745,20.166 -8.679,31.604 -2.762,34.26 15.736,63.235 44.943,75.198 9.867,4.037 26.394,5.866 27.775,5.938 8.362,0.813 48.917,2.214 57.103,-22.037 0,0 0.728,-2.409 0.856,-6.267 0.096,-2.886 0.602,-5.48 -0.253,-9.32 -0.659,-2.881 -2.049,-6.854 -3.667,-9.743 l 0,0 c -1.995,-4.19 -5.081,-9.097 -7.071,-13.261 7.755,-4.583 10.872,-7.183 14.663,-10.99 z"
       id="path3490"
       style="fill:url(#SVGID_4_)"
       inkscape:connector-curvature="0" /></g></svg>